<svg xmlns="http://www.w3.org/2000/svg" xmlns:xlink="http://www.w3.org/1999/xlink" version="1.1" x="0px" y="0px" viewBox="0 0 60 75" enable-background="new 0 0 60 60" xml:space="preserve">
	<g>
		<path fill="white" d="M47.0087891,9.9296875c-1.5195313-2.3105469-3.6943359-4.1591797-6.4648438-5.4960938   c-1.3769531-0.6640625-2.8671875-1.1611328-4.4619141-1.4941406c-2.1455078-0.7324219-4.5253906-1.0996094-7.1367188-1.0996094   c-3.7080078,0-6.9521484,0.7587891-9.7324219,2.2802734c-2.78125,1.5244141-4.8974609,3.4404297-6.3476563,5.7587891   c-1.4482422,2.3173828-2.1728516,4.6044922-2.1728516,6.8642578c0,1.0927734,0.4560547,2.1074219,1.3710938,3.0498047   c0.0654297,0.0644531,0.1376953,0.1123047,0.2060547,0.1738281c0.2695313,0.6669922,0.6806641,1.3066406,1.2646484,1.90625   c1.0800781,1.1054688,2.4228516,1.6669922,3.9921875,1.6669922c1.8408203,0,4.2783203-0.8066406,5.4267578-4.6220703   c0.8115234-2.4365234,1.8037109-4.2910156,2.9472656-5.5097656c1.0566406-1.1298828,2.7861328-1.7021484,5.1376953-1.7021484   c2.0234375,0,3.6210938,0.5654297,4.8808594,1.7294922c0.0390625,0.0371094,0.0644531,0.078125,0.1035156,0.1152344   c0.3417969,0.7900391,0.5175781,1.6513672,0.5175781,2.5869141c0,0.9736328-0.2333984,1.875-0.6962891,2.7089844   c-0.4628906,0.8310547-1.0332031,1.5859375-1.7099609,2.2636719c-0.6777344,0.6767578-1.7773438,1.6806641-3.2978516,3.0117188   c-1.7363281,1.5214844-3.1132813,2.8349609-4.1357422,3.9414063c-1.0224609,1.1025391-1.8427734,2.3857422-2.4609375,3.8496094   c-0.6171875,1.4599609-0.9257813,3.1884766-0.9257813,5.1865234c0,1.5927734,0.4208984,2.7910156,1.2646484,3.6005859   c0.1035156,0.0986328,0.2216797,0.1738281,0.3320313,0.2626953c0.2548828,0.7246094,0.6396484,1.3408203,1.1591797,1.8378906   c1.0048828,0.9658203,2.2578125,1.4560547,3.7216797,1.4560547c2.8076172,0,4.5703125-1.5283203,5.0947266-4.3867188   c0.2548828-1.1435547,0.4453125-1.9433594,0.5751953-2.3994141c0.1152344-0.4082031,0.2802734-0.8242188,0.4882813-1.2285156   c0.2080078-0.4023438,0.5322266-0.8583984,0.9697266-1.3583984c0.4628906-0.53125,1.0927734-1.1601563,1.8671875-1.8652344   c2.9677734-2.6582031,4.9658203-4.4892578,6.1074219-5.6083984c1.1875-1.1640625,2.2255859-2.5595703,3.0820313-4.1494141   c0.8828125-1.6396484,1.3320313-3.5664063,1.3320313-5.7246094C49.3076172,14.8066406,48.5332031,12.2480469,47.0087891,9.9296875z    M24.6289063,12.2167969c-1.3164063,1.4023438-2.4365234,3.4716797-3.3369141,6.1738281   c-0.9199219,3.0527344-2.5898438,3.4072266-3.765625,3.4072266c-0.7929688,0-1.4785156-0.2011719-2.0849609-0.5996094   c2.2539063-0.0068359,3.7851563-1.3476563,4.5917969-4.0292969c0.8554688-2.5664063,1.9003906-4.5097656,3.1376953-5.8271484   c1.2353516-1.3203125,3.1621094-1.9804688,5.7744141-1.9804688c1.3183594,0,2.4755859,0.2587891,3.5087891,0.7119141   c-0.4580078-0.0585938-0.9228516-0.109375-1.4160156-0.109375C28.1845703,9.9638672,26.0283203,10.7226563,24.6289063,12.2167969z    M46.4404297,22.4345703c-0.7724609,1.4355469-1.703125,2.6914063-2.765625,3.7294922   c-1.1074219,1.0859375-3.1425781,2.9541016-6.0566406,5.5615234c-0.8300781,0.7558594-1.5068359,1.4326172-2.0107422,2.0117188   c-0.5292969,0.6054688-0.9345703,1.1777344-1.2089844,1.7080078c-0.2597656,0.5107422-0.4677734,1.03125-0.6152344,1.5517578   c-0.1328125,0.4736328-0.3339844,1.3037109-0.6064453,2.5253906c-0.3779297,2.0693359-1.421875,2.9921875-3.3857422,2.9921875   c-0.7949219,0-1.46875-0.2041016-2.0546875-0.6064453c2.3525391-0.0126953,3.7558594-1.2451172,4.2050781-3.7021484   c0.2607422-1.1640625,0.4560547-1.9775391,0.5869141-2.4443359c0.1318359-0.4628906,0.3154297-0.9257813,0.5537109-1.3916016   c0.2382813-0.4628906,0.5986328-0.9736328,1.0869141-1.53125c0.4873047-0.5585938,1.1337891-1.2050781,1.9433594-1.9433594   c2.9238281-2.6142578,4.9492188-4.4726563,6.0791016-5.5791016c1.1279297-1.1054688,2.1035156-2.4160156,2.9228516-3.9404297   C45.9345703,19.8544922,46.34375,18.0849609,46.34375,16.0625c0-2.3173828-0.6181641-4.4716797-1.7910156-6.4765625   c0.359375,0.4150391,0.7001953,0.84375,0.9990234,1.2998047c1.3359375,2.0292969,2.0136719,4.2685547,2.0136719,6.6503906   C47.5654297,19.4013672,47.1875,21.0527344,46.4404297,22.4345703z" />
		<path fill="white" d="M30.6435547,45.7988281c-0.7587891-0.4121094-1.6015625-0.6435547-2.5527344-0.6435547   c-1.5214844,0-2.8066406,0.5146484-3.8515625,1.5351563c-1.0458984,1.0214844-1.5683594,2.2802734-1.5683594,3.7783203   c0,1.6875,0.5410156,3.0009766,1.6210938,3.9404297c0.0175781,0.0136719,0.0361328,0.0244141,0.0517578,0.0380859   c0.3212891,0.8095703,0.8046875,1.5146484,1.4697266,2.0898438c1.2392578,1.078125,2.7089844,1.6230469,4.3701172,1.6230469   c1.6132813,0,3.0546875-0.5517578,4.2880859-1.6474609c1.2558594-1.1191406,1.8945313-2.6582031,1.8945313-4.5742188   c0-1.7285156-0.6025391-3.2060547-1.7880859-4.3935547C33.4970703,46.4658203,32.1699219,45.8974609,30.6435547,45.7988281z    M33.3134766,55.2128906c-0.9160156,0.8095703-1.9384766,1.2050781-3.1298828,1.2050781   c-0.9003906,0-1.6982422-0.2109375-2.421875-0.6269531c0.1113281,0.0039063,0.2148438,0.0273438,0.3291016,0.0273438   c1.4023438,0,2.6376953-0.4765625,3.7080078-1.4257813c1.0683594-0.953125,1.6025391-2.2597656,1.6025391-3.9238281   c0-0.6982422-0.1220703-1.3349609-0.3417969-1.9267578c0.09375,0.078125,0.1962891,0.1464844,0.2861328,0.234375   c0.859375,0.8613281,1.2783203,1.8964844,1.2783203,3.1621094C34.6240234,53.3544922,34.1943359,54.4267578,33.3134766,55.2128906z   " />
	</g>
</svg>
